<svg xmlns="http://www.w3.org/2000/svg" width="456" height="456" fill="none" viewBox="0 0 456 456">
    <path fill="#fff" d="M113.288 212.672c-.576 1.6-1.408 2.976-2.496 4.128-1.088 1.088-2.72 1.632-4.896 1.632-1.024 0-1.952-.192-2.784-.576-.832-.448-1.504-1.184-2.016-2.208a4.734 4.734 0 0 1-.576-2.304c0-1.024.256-1.952.768-2.784.576-.832 1.376-1.28 2.4-1.344h.384c.192-.064.32-.096.384-.096 1.024 0 1.824.384 2.4 1.152.192.256.288.512.288.768 0 .448-.256.928-.768 1.44-.448.448-.896.928-1.344 1.44-.384.512-.48 1.088-.288 1.728.384 1.152 1.088 1.728 2.112 1.728.96 0 1.984-.512 3.072-1.536 1.152-1.088 2.048-2.592 2.688-4.512.192-.384.288-.832.288-1.344 0-.96-.384-1.952-1.152-2.976a6.411 6.411 0 0 0-2.976-2.208 11.173 11.173 0 0 0-1.728-.48 7.944 7.944 0 0 0-1.728-.192c-2.304 0-4.576.672-6.816 2.016-2.24 1.344-3.776 3.2-4.608 5.568-.32.832-.544 1.632-.672 2.4a12.927 12.927 0 0 0-.192 2.112c0 1.856.48 3.424 1.44 4.704.96 1.28 2.176 2.432 3.648 3.456a644.814 644.814 0 0 0 4.8 3.168 31.28 31.28 0 0 1 4.704 3.552c1.536 1.344 2.784 2.976 3.744 4.896.96 1.92 1.44 4.288 1.44 7.104 0 1.6-.192 3.392-.576 5.376-.384 1.984-1.024 4.192-1.92 6.624-1.088 2.944-2.72 5.6-4.896 7.968-2.112 2.432-4.576 4.352-7.392 5.76a18.92 18.92 0 0 1-8.736 2.112c-2.112 0-4.224-.384-6.336-1.152-3.136-1.152-5.248-2.624-6.336-4.416-1.152-1.728-1.728-3.488-1.728-5.28 0-1.216.16-2.368.48-3.456.32-1.088.608-2.048.864-2.88.448-1.28 1.344-2.592 2.688-3.936a20.336 20.336 0 0 1 4.704-3.36c1.728-.96 3.328-1.44 4.8-1.44.64 0 1.248.096 1.824.288 1.216.32 1.824 1.6 1.824 3.84 0 .64-.064 1.28-.192 1.92-.128.64-.32 1.312-.576 2.016-.448 1.216-1.12 2.208-2.016 2.976-.832.768-1.952 1.152-3.36 1.152-.704 0-1.376-.032-2.016-.096a2.058 2.058 0 0 1-1.344-.96l-.192-.384v-.384c0-1.024.512-1.888 1.536-2.592.512-.384.992-.384 1.44 0 .448.384.896.8 1.344 1.248.512.384 1.056.512 1.632.384 1.024-.256 1.696-.832 2.016-1.728.32-.896.48-1.888.48-2.976v-.96c0-.32-.032-.64-.096-.96-.064-1.088-.608-1.632-1.632-1.632-.768 0-1.728.32-2.88.96-1.088.64-2.208 1.44-3.36 2.4a23.909 23.909 0 0 0-2.88 2.784c-.832.896-1.344 1.6-1.536 2.112-.576 1.6-.864 3.104-.864 4.512 0 3.392 1.792 5.76 5.376 7.104.384.128.832.192 1.344.192 1.28 0 3.008-.288 5.184-.864 2.24-.576 4.608-1.504 7.104-2.784 2.496-1.28 4.832-3.008 7.008-5.184s3.84-4.864 4.992-8.064c.576-1.536.992-2.944 1.248-4.224.256-1.28.384-2.464.384-3.552 0-2.432-.544-4.448-1.632-6.048-1.024-1.664-2.4-3.04-4.128-4.128a46.865 46.865 0 0 0-5.28-2.976 105.612 105.612 0 0 1-5.376-2.784c-1.664-1.024-3.04-2.208-4.128-3.552-1.024-1.408-1.536-3.168-1.536-5.28 0-.768.064-1.6.192-2.496.192-.96.48-1.952.864-2.976 1.28-3.584 3.136-6.144 5.568-7.68 2.496-1.536 5.12-2.304 7.872-2.304 1.152 0 2.304.128 3.456.384a19.91 19.91 0 0 1 3.36.864c1.856.64 3.104 1.44 3.744 2.4.704.96 1.056 2.016 1.056 3.168 0 .704-.096 1.44-.288 2.208a12.92 12.92 0 0 1-.672 2.304Zm29.878 9.408v.672c.064.448-.064.992-.384 1.632-.32.64-1.024 1.28-2.112 1.92-.384.256-1.088.448-2.112.576a47.021 47.021 0 0 1-3.456.288 131.948 131.948 0 0 1-2.304 5.664 81.178 81.178 0 0 1-2.592 5.28c-1.344 2.56-2.496 4.448-3.456 5.664a94.348 94.348 0 0 1-2.112 2.784c-.512.576-.864 1.28-1.056 2.112-.064.384-.128.736-.192 1.056v.96c0 2.368.672 4.096 2.016 5.184 1.408 1.088 2.752 1.632 4.032 1.632 1.472 0 2.944-.512 4.416-1.536 1.472-1.088 2.688-2.08 3.648-2.976.768-.64 1.344-.96 1.728-.96.256 0 .384.128.384.384 0 .448-.352 1.152-1.056 2.112-.384.512-1.024 1.216-1.92 2.112-.896.896-2.016 1.728-3.36 2.496-1.344.704-2.848 1.056-4.512 1.056-3.328 0-5.568-.768-6.72-2.304-1.088-1.536-1.632-4.096-1.632-7.68 0-2.816.288-6.272.864-10.368.576-4.16 1.472-8.544 2.688-13.152h-.96a4.45 4.45 0 0 0-.864-.096c-.832 0-1.472.128-1.92.384-.384.192-.704.288-.96.288-.64 0-.96-.48-.96-1.44 0-1.088.288-1.92.864-2.496.448-.448 1.216-.672 2.304-.672.832 0 1.952.16 3.36.48.128-.384.256-.736.384-1.056.128-.32.224-.64.288-.96.128-.64.256-1.152.384-1.536l.48-1.44c1.088-3.264 2.272-6.4 3.552-9.408 1.28-3.008 3.136-5.696 5.568-8.064.448-.704 1.056-1.056 1.824-1.056.576 0 1.088.256 1.536.768.448.448.64.992.576 1.632l-.096 2.4c-.064 1.6-.192 3.552-.384 5.856a65.057 65.057 0 0 1-.864 6.432 36.942 36.942 0 0 1-.864 3.936 37.527 37.527 0 0 1-1.248 4.128c.384.064.736.128 1.056.192h1.056c.96 0 1.696-.128 2.208-.384.576-.32.896-.64.96-.96l.192-.48c0-1.28.32-1.92.96-1.92.32 0 .576.288.768.864Zm-6.816-16.032c-.384-.064-.992.672-1.824 2.208-.832 1.536-1.728 3.552-2.688 6.048a143.02 143.02 0 0 0-2.784 7.968l-.192.768a9.223 9.223 0 0 0-.192.672c.448.128.896.224 1.344.288.448.064.928.16 1.44.288.256.064.544.096.864.096.32 0 .608.064.864.192.256-.704.48-1.312.672-1.824.192-.576.384-1.088.576-1.536a67.31 67.31 0 0 0 1.728-7.296c.448-2.496.672-4.448.672-5.856 0-1.152-.16-1.824-.48-2.016Zm-4.224 21.12h-3.072c-.384 0-.768-.032-1.152-.096a262.671 262.671 0 0 0-1.728 7.872 199.797 199.797 0 0 0-1.248 7.392c.768-.896 1.568-2.176 2.4-3.84a90.7 90.7 0 0 0 2.496-5.472c.832-2.048 1.6-4 2.304-5.856Zm26.961 14.784c0 1.344-.288 3.104-.864 5.28a32.014 32.014 0 0 1-2.304 6.144c-.896 1.984-1.92 3.456-3.072 4.416-1.088.896-2.144 1.536-3.168 1.92-1.024.32-1.856.64-2.496.96-.256.064-.544.128-.864.192a1.905 1.905 0 0 1-.864.192c-1.28 0-2.272-.352-2.976-1.056-.256-.256-.672-.512-1.248-.768-.512-.256-.992-.704-1.44-1.344-.448-.64-.672-1.696-.672-3.168 0-1.536.192-3.008.576-4.416-1.152-1.344-1.728-2.816-1.728-4.416 0-.96.224-1.888.672-2.784 1.216-2.304 2.752-4.096 4.608-5.376 1.856-1.28 3.616-2.176 5.28-2.688 1.728-.512 2.912-.768 3.552-.768 2.368 0 4.128.768 5.28 2.304 1.152 1.536 1.728 3.328 1.728 5.376Zm-3.936.48c0-1.472-.512-2.688-1.536-3.648-.96-.96-2.176-1.44-3.648-1.44-1.216 0-2.464.384-3.744 1.152a11.605 11.605 0 0 0-3.168 2.688c-.896 1.088-1.472 2.144-1.728 3.168-.064.384-.128.736-.192 1.056v.96c.704-1.536 1.44-2.816 2.208-3.84.832-1.024 1.44-1.664 1.824-1.92.32-.256.736-.384 1.248-.384.704 0 1.056.192 1.056.576 0 .256-.352.736-1.056 1.44-.64.64-1.376 1.504-2.208 2.592-.832 1.024-1.536 2.304-2.112 3.84.512.64 1.184 1.12 2.016 1.44.896.256 1.76.384 2.592.384.896 0 1.728-.16 2.496-.48.832-.384 1.376-.896 1.632-1.536a1.58 1.58 0 0 0 .096-.48 1.58 1.58 0 0 0 .096-.48c0-.64-.288-1.024-.864-1.152a3.191 3.191 0 0 0-1.536-.192h-.192c-.704 0-1.056-.16-1.056-.48 0-.192.064-.384.192-.576l.48-.48c.384-.384.8-.576 1.248-.576.64 0 1.344.416 2.112 1.248.704.96 1.056 1.888 1.056 2.784 0 1.152-.576 2.048-1.728 2.688-1.088.64-2.304 1.088-3.648 1.344-1.344.256-2.368.384-3.072.384-1.024 0-1.856-.224-2.496-.672-.064.128-.096.416-.096.864 0 1.792.48 3.008 1.44 3.648.96.576 1.76 1.024 2.4 1.344.384.128.704.192.96.192.896 0 1.824-.384 2.784-1.152 1.024-.768 1.92-1.824 2.688-3.168.576-1.024 1.12-2.24 1.632-3.648a37.527 37.527 0 0 0 1.248-4.128c.384-1.408.576-2.528.576-3.36Zm27.666 12.384c.256-.256.608-.384 1.056-.384.448 0 .672.192.672.576 0 .448-.512 1.152-1.536 2.112a13.088 13.088 0 0 1-3.36 2.304c-1.216.576-2.368.992-3.456 1.248-.512.064-1.216-.128-2.112-.576-.832-.384-1.344-.8-1.536-1.248a8.425 8.425 0 0 1-.576-1.92 14.583 14.583 0 0 1-.192-2.4c0-1.984.224-4.032.672-6.144.448-2.112.864-3.936 1.248-5.472-.768.256-1.632.384-2.592.384-.896 0-1.696.064-2.4.192-.448.64-.832 1.376-1.152 2.208-.32.768-.768 1.632-1.344 2.592a58.401 58.401 0 0 1-3.456 4.992c-1.216 1.6-2.464 2.912-3.744 3.936-1.28 1.024-2.528 1.536-3.744 1.536-.832 0-1.248-.224-1.248-.672 0-.448.544-.864 1.632-1.248 1.536-.576 3.104-1.792 4.704-3.648a51.981 51.981 0 0 0 4.32-5.76c.64-.96 1.056-1.824 1.248-2.592.192-.832.288-1.472.288-1.92l-.864-.96c-.512-.704-.768-1.376-.768-2.016 0-1.408.448-2.688 1.344-3.84.96-1.152 1.952-1.568 2.976-1.248.704.192 1.152.512 1.344.96.256.448.384.928.384 1.44 0 .576-.096 1.184-.288 1.824a19.907 19.907 0 0 1-.576 1.536c.192.256.608.384 1.248.384.96 0 2.016-.192 3.168-.576.832-1.216 1.632-2.176 2.4-2.88.768-.704 1.472-.992 2.112-.864.448.064.864.224 1.248.48s.576.736.576 1.44c0 .576-.288 1.44-.864 2.592a51.827 51.827 0 0 0-2.688 5.664c-.832 1.984-1.472 3.808-1.92 5.472-.448 1.6-.64 2.72-.576 3.36.128.832.352 1.376.672 1.632.384.256.8.384 1.248.384.32 0 .64-.032.96-.096a8.876 8.876 0 0 1 1.056-.288c.96-.32 1.76-.672 2.4-1.056.64-.384 1.312-.864 2.016-1.44Zm-14.304-16.224c0-.576-.192-.992-.576-1.248-.064-.064-.16-.096-.288-.096-.32 0-.608.224-.864.672-.256.384-.384.768-.384 1.152 0 .32.032.704.096 1.152.128.384.352.48.672.288.32-.192.608-.448.864-.768.32-.32.48-.704.48-1.152Zm41.278-7.008c.384.576.576 1.216.576 1.92 0 1.408-.48 3.2-1.44 5.376a178.625 178.625 0 0 0-2.784 7.008 23.89 23.89 0 0 0-1.536 7.872c-.064 3.456-.128 7.008-.192 10.656 0 3.648-.416 7.2-1.248 10.656-.768 3.52-2.4 6.72-4.896 9.6-2.048 2.368-4.224 3.968-6.528 4.8-2.24.896-4.608 1.344-7.104 1.344-.449 0-.929-.032-1.441-.096-.512 0-1.024-.032-1.536-.096-1.216-.128-2.528-.704-3.935-1.728-1.409-1.024-2.625-2.496-3.649-4.416-1.024-1.92-1.536-4.256-1.536-7.008 0-.96.096-2.016.288-3.168.32-1.92.8-3.872 1.44-5.856.64-1.92 1.568-3.52 2.784-4.8 1.216-1.28 2.848-1.92 4.896-1.92 1.664 0 3.233.608 4.705 1.824a17.941 17.941 0 0 1 3.648 4.32c1.024 1.6 1.696 3.008 2.016 4.224.192.768.352 1.568.48 2.4.192.896.288 1.76.288 2.592 0 1.472-.288 2.496-.864 3.072-.64.704-1.44 1.056-2.4 1.056-.704 0-1.536-.192-2.496-.576-.64-.128-1.408-.576-2.304-1.344-.832-.704-1.249-1.632-1.249-2.784 0-.768.161-1.504.481-2.208.384-.704.704-1.184.96-1.44.512-.384.864-.576 1.056-.576.32 0 .544.416.672 1.248v.096c0 .256-.128.512-.384.768s-.352.704-.288 1.344c.128.896.48 1.536 1.056 1.92.576.448.992.672 1.248.672.832 0 1.248-.832 1.248-2.496 0-1.344-.384-2.976-1.152-4.896-.64-1.6-1.536-2.976-2.688-4.128-1.152-1.152-2.497-1.856-4.033-2.112-.768-.128-1.6.064-2.496.576-.96.512-1.792 1.504-2.496 2.976-.448.832-.736 1.76-.864 2.784a17.157 17.157 0 0 0-.288 3.168c0 1.216.096 2.368.288 3.456.128 3.52 1.056 6.08 2.784 7.68 1.664 1.664 3.872 2.496 6.625 2.496.384 0 .768-.032 1.152-.096.448 0 .896-.032 1.344-.096 1.92-.256 3.776-1.216 5.568-2.88a23.344 23.344 0 0 0 4.512-5.76c1.024-1.856 1.664-3.392 1.92-4.608.32-1.216.48-2.688.48-4.416a77.34 77.34 0 0 0-.096-3.648v-9.312c.064-1.6.128-3.392.192-5.376-3.392 1.792-6.176 2.688-8.352 2.688-1.728 0-3.328-.544-4.8-1.632a3.604 3.604 0 0 1-1.152-1.44 6.979 6.979 0 0 1-.288-2.016c0-1.536.384-3.232 1.152-5.088a31.4 31.4 0 0 1 2.688-5.28c1.024-1.664 1.92-2.88 2.688-3.648.448-.768.96-1.152 1.536-1.152.512 0 .928.32 1.248.96.32.576.32.992 0 1.248a9.374 9.374 0 0 0-2.112 2.592 49.122 49.122 0 0 0-1.632 3.168c-.448 1.088-.672 2.496-.672 4.224 0 .64.032 1.28.096 1.92.128.64.32 1.12.576 1.44.32.384.896.576 1.728.576.768 0 1.632-.16 2.592-.48.96-.384 1.76-.864 2.4-1.44 1.536-1.408 2.624-2.88 3.264-4.416.704-1.6 1.248-3.136 1.632-4.608l.672-2.688c.256-1.088.384-2.176.384-3.264 0-.384.416-.896 1.248-1.536.832-.704 1.696-1.056 2.591-1.056.705 0 1.281.288 1.729.864Zm21.217-4.416a29.796 29.796 0 0 1-.672 1.632c-.192.576-.384 1.12-.576 1.632l.672.096c.384.064.736.128 1.056.192h1.056c.512 0 .96-.032 1.344-.096l.864-.288c.512-.128.832-.288.96-.48l.192-.288c0-.256.096-.512.288-.768.192-.32.416-.48.672-.48.32 0 .576.288.768.864l-.096.96c0 .64-.8 1.28-2.4 1.92-1.088.448-2.944.736-5.568.864h-.96c-.384.896-.8 1.792-1.248 2.688-.384.832-.8 1.664-1.248 2.496-1.344 2.56-2.496 4.448-3.456 5.664a94.348 94.348 0 0 1-2.112 2.784c-.512.576-.864 1.28-1.056 2.112-.064.384-.128.736-.192 1.056v.96c0 2.368.672 4.096 2.016 5.184 1.408 1.088 2.752 1.632 4.032 1.632 1.472 0 2.944-.512 4.416-1.536 1.472-1.088 2.688-2.08 3.648-2.976.768-.64 1.344-.96 1.728-.96.256 0 .384.128.384.384 0 .448-.352 1.152-1.056 2.112-.384.512-1.024 1.216-1.92 2.112-.896.896-2.016 1.728-3.36 2.496-1.344.704-2.848 1.056-4.512 1.056-3.328 0-5.568-.768-6.72-2.304-1.088-1.536-1.632-4.096-1.632-7.68 0-2.24.16-4.864.48-7.872.384-3.072.928-6.368 1.632-9.888l-1.632-.096c-.832 0-1.472.128-1.92.384-.384.192-.704.288-.96.288-.64 0-.96-.48-.96-1.44 0-1.088.288-1.92.864-2.496.448-.448 1.216-.672 2.304-.672.512 0 1.024.064 1.536.192.512.064 1.056.16 1.632.288l.576-2.208 1.536-5.568c.128-.64.256-1.152.384-1.536l.48-1.44c1.088-3.264 2.272-6.4 3.552-9.408 1.28-3.008 3.136-5.696 5.568-8.064.448-.704 1.056-1.056 1.824-1.056.576 0 1.088.256 1.536.768.448.448.64.992.576 1.632l-.096 2.4c-.064 1.6-.192 3.552-.384 5.856a65.057 65.057 0 0 1-.864 6.432 36.942 36.942 0 0 1-.864 3.936 37.527 37.527 0 0 1-1.248 4.128l-.864 2.4Zm-7.776 2.304c.448.128.864.224 1.248.288.448.064.928.16 1.44.288l.864.096a9.91 9.91 0 0 0 .672-1.44c.192-.576.384-1.088.576-1.536l1.056-2.592c.256-.704.48-1.312.672-1.824.192-.576.384-1.088.576-1.536a67.31 67.31 0 0 0 1.728-7.296c.448-2.496.672-4.448.672-5.856 0-1.152-.16-1.824-.48-2.016-.384-.064-.992.672-1.824 2.208-.832 1.536-1.728 3.552-2.688 6.048a143.02 143.02 0 0 0-2.784 7.968l-.192.768a9.223 9.223 0 0 0-.192.672l-.768 3.36-.576 2.4Zm-2.4 12.864c.704-.896 1.472-2.176 2.304-3.84a118.439 118.439 0 0 0 2.496-5.568h-2.016c-.384 0-.736-.032-1.056-.096a138.612 138.612 0 0 0-1.056 4.992c-.256 1.664-.48 3.168-.672 4.512Zm35.313 5.952c-.832 1.408-1.888 2.944-3.168 4.608-1.28 1.6-2.624 2.976-4.032 4.128-1.344 1.152-2.624 1.728-3.84 1.728-1.984 0-3.552-.096-4.704-.288-1.088-.256-1.984-.608-2.688-1.056-1.216-.832-2.208-1.92-2.976-3.264-.768-1.344-1.216-2.72-1.344-4.128a6.996 6.996 0 0 1-.096-1.152v-1.056c0-3.776.736-7.104 2.208-9.984 1.472-2.88 3.552-4.608 6.24-5.184.832-.128 1.472.224 1.92 1.056.448.768.672 1.824.672 3.168 0 2.048-.544 4.256-1.632 6.624-.448.96-.928 1.888-1.44 2.784a37.282 37.282 0 0 1-1.152 2.016c-.832 1.216-1.472 2.048-1.92 2.496-.384.384-.576.768-.576 1.152 0 1.024.64 2.016 1.92 2.976 1.28.96 3.264 1.44 5.952 1.44 1.024 0 2.08-.448 3.168-1.344 1.088-.896 2.144-2.016 3.168-3.36a39.305 39.305 0 0 0 2.88-4.032c.384-.64.736-.96 1.056-.96.384 0 .576.288.576.864 0 .256-.064.512-.192.768Zm-14.4-12.096c-.256-.384-.8-.288-1.632.288-.768.512-1.472 1.728-2.112 3.648-.448 1.408-.672 3.04-.672 4.896v1.536l.192 1.536c1.088-1.856 1.856-3.232 2.304-4.128.512-.96.896-1.952 1.152-2.976.128-.512.32-1.152.576-1.92.32-.768.48-1.44.48-2.016 0-.384-.096-.672-.288-.864Zm35.966 15.168c-.512 1.152-1.632 2.528-3.36 4.128-1.664 1.6-3.648 3.008-5.952 4.224-2.24 1.152-4.512 1.728-6.816 1.728-3.328 0-5.568-.96-6.72-2.88-1.152-1.984-1.728-4.64-1.728-7.968 0-2.24.192-4.992.576-8.256.384-3.264.96-6.784 1.728-10.56a129.762 129.762 0 0 1 2.88-11.424c1.152-3.648 2.4-7.2 3.743-10.656a24.67 24.67 0 0 1 6.049-9.024c.448-.704 1.024-1.056 1.728-1.056.576 0 1.088.256 1.536.768.448.448.64.992.576 1.632l-.096 2.4c0 1.6-.096 3.552-.288 5.856a65.057 65.057 0 0 1-.864 6.432c-.576 3.456-1.632 7.104-3.168 10.944-1.472 3.84-3.04 7.328-4.704 10.464-1.344 2.624-2.432 4.512-3.264 5.664-.768 1.152-1.376 1.984-1.824 2.496-.384.512-.672 1.184-.864 2.016-.064.448-.128.96-.192 1.536v1.632c0 1.152.064 2.272.192 3.36.192 1.024.416 1.696.672 2.016.704.704 1.472 1.216 2.304 1.536a6.91 6.91 0 0 0 2.496.48c.704 0 1.344-.096 1.92-.288 2.176-.64 4.384-1.696 6.624-3.168 2.304-1.472 3.936-2.912 4.896-4.32.448-.64.8-1.056 1.056-1.248.32-.256.576-.384.768-.384.32 0 .48.224.48.672 0 .128-.032.32-.096.576-.064.192-.16.416-.288.672Zm-8.736-45.312c-.64-.128-1.664 1.28-3.072 4.224-1.344 2.944-2.752 6.944-4.224 12-.448 1.536-.96 3.488-1.536 5.856a486.256 486.256 0 0 0-1.536 7.392c-.512 2.496-.896 4.768-1.152 6.816 2.048-4.16 3.904-7.904 5.568-11.232 1.664-3.328 2.944-6.432 3.84-9.312.832-2.304 1.44-4.768 1.824-7.392.448-2.624.672-4.704.672-6.24 0-1.216-.128-1.92-.384-2.112Zm32.267 45.312c-.512 1.152-1.632 2.528-3.36 4.128-1.664 1.6-3.648 3.008-5.952 4.224-2.24 1.152-4.512 1.728-6.816 1.728-3.328 0-5.568-.96-6.72-2.88-1.152-1.984-1.728-4.64-1.728-7.968 0-2.24.192-4.992.576-8.256.384-3.264.96-6.784 1.728-10.56a129.762 129.762 0 0 1 2.88-11.424c1.152-3.648 2.4-7.2 3.744-10.656a24.656 24.656 0 0 1 6.048-9.024c.448-.704 1.024-1.056 1.728-1.056.576 0 1.088.256 1.536.768.448.448.64.992.576 1.632l-.096 2.4c0 1.6-.096 3.552-.288 5.856a65.057 65.057 0 0 1-.864 6.432c-.576 3.456-1.632 7.104-3.168 10.944-1.472 3.84-3.04 7.328-4.704 10.464-1.344 2.624-2.432 4.512-3.264 5.664-.768 1.152-1.376 1.984-1.824 2.496-.384.512-.672 1.184-.864 2.016-.064.448-.128.96-.192 1.536v1.632c0 1.152.064 2.272.192 3.36.192 1.024.416 1.696.672 2.016.704.704 1.472 1.216 2.304 1.536a6.91 6.91 0 0 0 2.496.48c.704 0 1.344-.096 1.92-.288 2.176-.64 4.384-1.696 6.624-3.168 2.304-1.472 3.936-2.912 4.896-4.32.448-.64.8-1.056 1.056-1.248.32-.256.576-.384.768-.384.32 0 .48.224.48.672 0 .128-.032.32-.096.576-.064.192-.16.416-.288.672Zm-8.736-45.312c-.64-.128-1.664 1.28-3.072 4.224-1.344 2.944-2.752 6.944-4.224 12-.448 1.536-.96 3.488-1.536 5.856a486.256 486.256 0 0 0-1.536 7.392c-.512 2.496-.896 4.768-1.152 6.816 2.048-4.16 3.904-7.904 5.568-11.232 1.664-3.328 2.944-6.432 3.84-9.312.832-2.304 1.44-4.768 1.824-7.392.448-2.624.672-4.704.672-6.24 0-1.216-.128-1.92-.384-2.112Zm26.027 15.168c-.448 0-.896-.064-1.344-.192a10.732 10.732 0 0 1-1.152-.672c-.832-.384-1.248-1.216-1.248-2.496 0-.576.128-1.216.384-1.92.32-.704.8-1.376 1.44-2.016a2.222 2.222 0 0 1 1.632-.672c.576 0 1.12.224 1.632.672.256.256.416.672.48 1.248.128.512.192 1.088.192 1.728 0 .768-.064 1.536-.192 2.304-.128.704-.352 1.216-.672 1.536-.448.32-.832.48-1.152.48Zm-9.792 37.728c-2.368 0-4-.544-4.896-1.632-.896-1.088-1.344-2.4-1.344-3.936 0-.704.064-1.408.192-2.112.128-.704.288-1.408.48-2.112-.64 1.152-1.632 2.496-2.976 4.032-1.344 1.472-2.592 2.656-3.744 3.552-.256.192-.512.288-.768.288-.384 0-.576-.224-.576-.672 0-.512.192-.96.576-1.344 2.688-2.816 4.736-5.088 6.144-6.816 1.408-1.792 2.496-3.296 3.264-4.512a103.578 103.578 0 0 1 2.208-3.36 118.495 118.495 0 0 0 1.536-5.376c.512-1.792 1.28-3.616 2.304-5.472.32-.576.96-.864 1.92-.864.64 0 1.216.16 1.728.48.512.32.768.864.768 1.632 0 .384-.096.832-.288 1.344-.704 1.984-1.472 3.68-2.304 5.088a244.066 244.066 0 0 1-3.072 5.184c-1.344 2.176-2.432 4.288-3.264 6.336-.768 2.048-1.152 3.776-1.152 5.184 0 .896.192 1.632.576 2.208.448.576 1.088.864 1.92.864 1.792.064 3.168-.224 4.128-.864.96-.704 1.76-1.376 2.4-2.016a31.513 31.513 0 0 0 2.112-2.496c.64-.768 1.216-1.44 1.728-2.016.384-.384.576-.32.576.192 0 .32-.096.736-.288 1.248-.128.512-.288.896-.48 1.152a55.428 55.428 0 0 1-2.304 2.976 12.324 12.324 0 0 1-2.976 2.784c-1.152.704-2.528 1.056-4.128 1.056Zm25.879-16.416c0 1.472-.128 2.56-.384 3.264-.192.704-.48 1.28-.864 1.728-.32.448-.672.96-1.056 1.536-.384.576-.704 1.44-.96 2.592-.192 1.088-.288 2.688-.288 4.8 0 .832.32 1.504.96 2.016.64.512 1.376.768 2.208.768.384 0 .576.128.576.384 0 .32-.256.704-.768 1.152-.448.512-.864.768-1.248.768-1.408 0-2.432-.544-3.072-1.632a7.402 7.402 0 0 1-.96-3.648c0-2.112.064-3.776.192-4.992.128-1.28.256-2.464.384-3.552.128-1.152.16-2.56.096-4.224-.064-1.152-.224-2.048-.48-2.688-.256-.704-.928-1.056-2.016-1.056-.576 0-.992.096-1.248.288-.192.192-.448.512-.768.96-.704 1.024-1.312 2.464-1.824 4.32a65.432 65.432 0 0 0-1.152 5.76 180.53 180.53 0 0 1-.768 5.376c-.192 1.536-.384 2.56-.576 3.072-.192.448-.448.768-.768.96a1.404 1.404 0 0 1-.864.288c-.256 0-.512-.064-.768-.192a3.725 3.725 0 0 1-.48-.192c-.32-.192-.48-.512-.48-.96 0-.448.096-.96.288-1.536.256-.64.448-1.216.576-1.728.128-.512.32-1.408.576-2.688.32-1.344.64-2.72.96-4.128.32-1.472.576-2.72.768-3.744l.384-1.632c-.32 0-.64.032-.96.096h-.96c-.96 0-1.44-.384-1.44-1.152 0-.512.192-1.28.576-2.304.384-1.024 1.088-2.368 2.112-4.032.32-.512.96-1.152 1.92-1.92s1.76-1.088 2.4-.96c.256-.128.48-.192.672-.192h.48c.704 0 1.088.256 1.152.768.128.448.16.928.096 1.44-.064.448-.032.64.096.576.896-.384 1.792-.576 2.688-.576 1.344 0 2.496.544 3.456 1.632 1.024 1.024 1.536 2.752 1.536 5.184Zm34.144-10.944c.384.448.576 1.184.576 2.208 0 1.408-.32 3.2-.96 5.376a116.74 116.74 0 0 1-2.112 7.008 163.803 163.803 0 0 0-2.112 7.488c-.576 2.432-.896 4.672-.96 6.72-.064 2.56-.224 4.768-.48 6.624a36.26 36.26 0 0 1-.96 5.376c-.448 1.728-1.088 3.68-1.92 5.856-.768 2.176-1.792 4.896-3.072 8.16-2.496 3.072-5.184 5.184-8.064 6.336-2.88 1.216-5.856 1.696-8.928 1.44-1.216-.128-2.496-.928-3.84-2.4-1.408-1.472-2.592-3.424-3.552-5.856s-1.44-5.088-1.44-7.968c0-1.152.096-2.304.288-3.456.32-1.92.8-3.84 1.44-5.76.64-1.92 1.568-3.52 2.784-4.8 1.216-1.28 2.848-1.92 4.896-1.92 1.664 0 3.2.608 4.608 1.824a17.941 17.941 0 0 1 3.648 4.32c1.024 1.6 1.696 3.008 2.016 4.224.192.768.352 1.568.48 2.4.192.896.288 1.76.288 2.592 0 1.472-.288 2.496-.864 3.072-.64.704-1.408 1.056-2.304 1.056-.768 0-1.632-.192-2.592-.576-.64-.128-1.376-.576-2.208-1.344-.832-.704-1.248-1.632-1.248-2.784 0-.768.16-1.504.48-2.208.32-.704.608-1.184.864-1.44.448-.448.8-.672 1.056-.672s.416.128.48.384l.192.96v.096c0 .192-.096.384-.288.576-.192.256-.288.608-.288 1.056 0 1.088.288 1.856.864 2.304.64.512 1.088.768 1.344.768.832 0 1.248-.832 1.248-2.496 0-1.344-.384-2.976-1.152-4.896a13.214 13.214 0 0 0-2.688-4.224c-1.152-1.152-2.464-1.856-3.936-2.112-.832-.128-1.696.064-2.592.576-.96.576-1.792 1.6-2.496 3.072-.448.832-.736 1.76-.864 2.784a16.636 16.636 0 0 0-.288 3.072c0 1.344.096 2.496.288 3.456.128 3.712 1.12 6.56 2.976 8.544 1.856 2.048 4.256 3.072 7.2 3.072h.96c.32 0 .64-.032.96-.096 1.92-.256 3.776-1.216 5.568-2.88 1.792-1.6 3.296-3.52 4.512-5.76.768-1.344 1.312-3.008 1.632-4.992.32-1.92.544-3.936.672-6.048.192-2.112.416-4 .672-5.664a7.174 7.174 0 0 0 .192-1.536v-.96c0-.704-.064-1.408-.192-2.112-.064-.768-.096-2.048-.096-3.84v-1.728c0-.64.032-1.376.096-2.208-3.008 1.664-5.696 2.496-8.064 2.496-2.88 0-5.28-1.248-7.2-3.744a4.837 4.837 0 0 1-1.056-3.072c0-1.536.512-3.136 1.536-4.8 1.088-1.728 2.496-3.36 4.224-4.896a29.204 29.204 0 0 1 5.76-4.032c2.112-1.152 4.16-1.888 6.144-2.208a20.15 20.15 0 0 0 2.688-.576c.96-.32 1.824-.48 2.592-.48 1.088 0 1.952.416 2.592 1.248Zm-4.8 7.104c.128-.576.256-1.12.384-1.632.192-.576.288-1.088.288-1.536 0-.32-.032-.64-.096-.96a1.517 1.517 0 0 0-.576-.96c-.384-.448-.992-.672-1.824-.672-1.088 0-2.4.416-3.936 1.248-1.536.832-3.04 1.984-4.512 3.456-1.408 1.408-2.496 3.104-3.264 5.088-.32.832-.64 1.888-.96 3.168-.32 1.216-.48 2.368-.48 3.456 0 1.024.16 1.792.48 2.304.384.448 1.088.672 2.112.672.96 0 2.016-.192 3.168-.576 1.216-.448 2.24-1.024 3.072-1.728 1.92-1.792 3.296-3.648 4.128-5.568.896-1.984 1.568-3.904 2.016-5.76Z"/>
</svg>
